<svg width="20" height="20" viewBox="0 0 20 20" fill="none" xmlns="http://www.w3.org/2000/svg">
<g clip-path="url(#clip0_66_1030)">
<path d="M14.3332 11.6669C14.564 11.6669 14.6794 11.6669 14.773 11.7181C14.8501 11.7604 14.922 11.8398 14.9563 11.9208C14.998 12.019 14.9875 12.1235 14.9665 12.3325C14.8578 13.4158 14.485 14.4597 13.8763 15.3707C13.1438 16.467 12.1026 17.3215 10.8844 17.8261C9.66622 18.3307 8.32578 18.4627 7.03257 18.2054C5.73936 17.9482 4.55148 17.3133 3.61913 16.3809C2.68678 15.4486 2.05184 14.2607 1.79461 12.9675C1.53737 11.6743 1.66939 10.3338 2.17398 9.11566C2.67856 7.89748 3.53304 6.85629 4.62937 6.12375C5.54031 5.51508 6.58422 5.14222 7.66759 5.03352C7.87656 5.01255 7.98104 5.00207 8.07924 5.04373C8.16024 5.07809 8.23964 5.14992 8.28192 5.22709C8.33317 5.32063 8.33317 5.43605 8.33317 5.66688V11.0002C8.33317 11.2336 8.33317 11.3502 8.37859 11.4394C8.41853 11.5178 8.48228 11.5815 8.56068 11.6215C8.64981 11.6669 8.76649 11.6669 8.99984 11.6669H14.3332Z" stroke="#323F47" stroke-width="1.8" stroke-linecap="round" stroke-linejoin="round"/>
<path d="M11.6665 2.33339C11.6665 2.10256 11.6665 1.98714 11.7178 1.89359C11.76 1.81643 11.8394 1.7446 11.9204 1.71023C12.0186 1.66857 12.1231 1.67905 12.3321 1.70001C13.8558 1.85285 15.2882 2.52698 16.3805 3.61935C17.4729 4.71172 18.1471 6.14414 18.2999 7.66781C18.3208 7.87679 18.3313 7.98127 18.2897 8.07947C18.2553 8.16047 18.1835 8.23986 18.1063 8.28214C18.0128 8.33339 17.8973 8.33339 17.6665 8.33339L12.3332 8.33339C12.0998 8.33339 11.9831 8.33339 11.894 8.28798C11.8156 8.24803 11.7519 8.18429 11.7119 8.10589C11.6665 8.01676 11.6665 7.90008 11.6665 7.66673L11.6665 2.33339Z" stroke="#9BE1A0" stroke-width="1.8" stroke-linecap="round" stroke-linejoin="round"/>
</g>
<defs>
<clipPath id="clip0_66_1030">
<rect width="20" height="20" fill="white"/>
</clipPath>
</defs>
</svg>
