<!-- <svg xmlns="http://www.w3.org/2000/svg" xmlns:xlink="http://www.w3.org/1999/xlink" aria-hidden="true" role="img" class="iconify iconify--logos" width="31.88" height="32" preserveAspectRatio="xMidYMid meet" viewBox="0 0 256 257"><defs><linearGradient id="IconifyId1813088fe1fbc01fb466" x1="-.828%" x2="57.636%" y1="7.652%" y2="78.411%"><stop offset="0%" stop-color="#41D1FF"></stop><stop offset="100%" stop-color="#BD34FE"></stop></linearGradient><linearGradient id="IconifyId1813088fe1fbc01fb467" x1="43.376%" x2="50.316%" y1="2.242%" y2="89.03%"><stop offset="0%" stop-color="#FFEA83"></stop><stop offset="8.333%" stop-color="#FFDD35"></stop><stop offset="100%" stop-color="#FFA800"></stop></linearGradient></defs><path fill="url(#IconifyId1813088fe1fbc01fb466)" d="M255.153 37.938L134.897 252.976c-2.483 4.44-8.862 4.466-11.382.048L.875 37.958c-2.746-4.814 1.371-10.646 6.827-9.67l120.385 21.517a6.537 6.537 0 0 0 2.322-.004l117.867-21.483c5.438-.991 9.574 4.796 6.877 9.62Z"></path><path fill="url(#IconifyId1813088fe1fbc01fb467)" d="M185.432.063L96.44 17.501a3.268 3.268 0 0 0-2.634 3.014l-5.474 92.456a3.268 3.268 0 0 0 3.997 3.378l24.777-5.718c2.318-.535 4.413 1.507 3.936 3.838l-7.361 36.047c-.495 2.426 1.782 4.5 4.151 3.78l15.304-4.649c2.372-.72 4.652 1.36 4.15 3.788l-11.698 56.621c-.732 3.542 3.979 5.473 5.943 2.437l1.313-2.028l72.516-144.72c1.215-2.423-.88-5.186-3.54-4.672l-25.505 4.922c-2.396.462-4.435-1.77-3.759-4.114l16.646-57.705c.677-2.35-1.37-4.583-3.769-4.113Z"></path></svg> -->
<svg width="28" height="31" viewBox="0 0 28 31" fill="none" xmlns="http://www.w3.org/2000/svg">
<path d="M27.7365 2.20549C27.6216 1.8248 27.4278 1.47344 27.1679 1.175C26.9081 0.876568 26.5882 0.637971 26.2299 0.475238C25.874 0.306452 25.4851 0.221202 25.0922 0.225832H2.96951C2.57678 0.203441 2.18499 0.283965 1.83186 0.45965C1.46571 0.624193 1.14016 0.869098 0.87869 1.17669C0.618947 1.47461 0.425007 1.82538 0.309864 2.20549C0.19072 2.58265 0.153997 2.98158 0.202248 3.37458L2.72353 25.1976C2.89264 26.6909 3.59983 28.0658 4.70673 29.0634C5.78874 30.0598 7.19611 30.6151 8.65777 30.6222H19.4193C20.8858 30.6159 22.2983 30.0608 23.3857 29.0634C24.4782 28.0561 25.1766 26.6839 25.3536 25.1976L26.7218 12.9299V12.7429L27.7826 3.39017C27.8421 2.99592 27.8265 2.59376 27.7365 2.20549ZM12.2091 26.1329H10.6717C9.67585 26.0767 8.72785 25.6812 7.98133 25.0105C7.23746 24.3309 6.74857 23.4111 6.5977 22.4074L6.22873 19.7262C6.18137 19.3175 6.29372 18.9063 6.54171 18.5805C6.78971 18.2548 7.15364 18.0404 7.55558 17.9834C7.95752 17.9263 8.36551 18.0311 8.6922 18.2753C9.01889 18.5194 9.23831 18.8836 9.30346 19.2898L9.67243 21.9397C9.71375 22.2294 9.85545 22.4946 10.0721 22.6879C10.287 22.8878 10.5648 23.0039 10.8562 23.0153H12.3936C12.8013 23.0153 13.1923 23.1795 13.4807 23.4718C13.769 23.7642 13.9309 24.1607 13.9309 24.5741C13.9309 24.9875 13.769 25.384 13.4807 25.6763C13.1923 25.9686 12.8013 26.1329 12.3936 26.1329H12.2091ZM24.508 11.7453C21.2642 12.3844 18.4969 12.5091 15.5605 10.1865C11.917 7.27155 7.50474 8.20682 3.26161 9.73443L2.49293 3.12517C2.4778 3.0585 2.4778 2.98921 2.49293 2.92253C2.51385 2.85704 2.55089 2.79803 2.60054 2.75107C2.63692 2.69354 2.69094 2.64972 2.75428 2.62636C2.81458 2.60903 2.87846 2.60903 2.93876 2.62636H25.2613C25.319 2.65906 25.371 2.70119 25.4151 2.75107C25.4612 2.79783 25.4919 2.85862 25.5073 2.92253C25.5308 2.99334 25.5308 3.06996 25.5073 3.14076L24.508 11.7453Z" fill="#9BE1A0"/>
</svg>